<svg width="36" height="36" viewBox="0 0 36 36" fill="none" xmlns="http://www.w3.org/2000/svg">
<path d="M32 19.886C32 17.677 30.881 15.886 29.5 15.886C29.488 15.886 29.479 15.891 29.467 15.891C27.955 9.58999 23.394 5.01099 18 5.01099C12.606 5.01099 8.044 9.59099 6.533 15.891C6.521 15.89 6.511 15.886 6.5 15.886C5.119 15.886 4 17.677 4 19.886C4 21.993 5.021 23.701 6.314 23.856C7.537 30.505 12.299 34.386 18 34.386C23.7 34.386 28.463 30.505 29.685 23.856C30.979 23.701 32 21.993 32 19.886Z" fill="#FFDC5D"/>
<path d="M33 12.65C33 11.759 32.531 10.983 31.829 10.54C31.935 10.263 32 9.96502 32 9.65002C32 8.37402 31.041 7.33402 29.807 7.18102C29.925 6.85802 30 6.51402 30 6.15002C30 4.49302 28.657 3.15002 27 3.15002C26.605 3.15002 26.23 3.23102 25.885 3.37002C25.539 2.09402 24.385 1.15002 23 1.15002C22.13 1.15002 21.354 1.52602 20.806 2.11702C20.384 0.971025 19.292 0.150024 18 0.150024C16.708 0.150024 15.616 0.971025 15.194 2.11702C14.646 1.52602 13.87 1.15002 13 1.15002C11.615 1.15002 10.461 2.09402 10.116 3.37002C9.77 3.23102 9.395 3.15002 9 3.15002C7.343 3.15002 6 4.49302 6 6.15002C6 6.51402 6.075 6.85802 6.193 7.18102C4.959 7.33402 4 8.37402 4 9.65002C4 9.96502 4.065 10.263 4.171 10.54C3.469 10.983 3 11.759 3 12.65C3 13.528 3.455 14.298 4.141 14.744C3.528 15.736 3.662 17.34 5.221 17.518C5.132 18.899 6.475 20.033 6.558 18.053C6.603 16.984 6.925 15.617 7.672 14.088C8.861 14.491 10.345 14.311 11.548 13.954C12.751 13.597 13.838 12.95 14.086 12.765C14.464 14.127 16.072 15.15 18 15.15C19.296 15.15 20.798 14.804 21.528 14.087C22.004 15.346 23.707 16.047 25.538 16.047C26.614 16.047 28.072 15.63 28.79 15.111C29.077 15.903 29.341 16.498 29.325 17.695C29.294 20.043 30.35 19.159 30.795 17.561C32.216 17.57 32.488 15.823 31.86 14.742C32.545 14.298 33 13.528 33 12.65Z" fill="#FFAC33"/>
<path d="M18 31C15.653 31 14.425 29.84 14.293 29.707C13.902 29.316 13.902 28.684 14.293 28.293C14.68 27.906 15.306 27.903 15.697 28.283C15.748 28.33 16.503 29 18 29C19.519 29 20.273 28.31 20.305 28.281C20.703 27.908 21.332 27.919 21.713 28.31C22.092 28.703 22.093 29.321 21.707 29.707C21.575 29.84 20.347 31 18 31ZM19 26H17C16.448 26 16 25.553 16 25C16 24.447 16.448 24 17 24H19C19.553 24 20 24.447 20 25C20 25.553 19.553 26 19 26Z" fill="#C1694F"/>
<path d="M13 22C12.448 22 12 21.553 12 21V19C12 18.448 12.448 18 13 18C13.552 18 14 18.448 14 19V21C14 21.553 13.552 22 13 22ZM23 22C22.447 22 22 21.553 22 21V19C22 18.448 22.447 18 23 18C23.553 18 24 18.448 24 19V21C24 21.553 23.553 22 23 22Z" fill="#662113"/>
</svg>
