<svg width="30" height="30" viewBox="0 0 30 30" fill="none" xmlns="http://www.w3.org/2000/svg">
<path d="M29.0419 27.3252L21.9018 19.8992C23.7377 17.7169 24.7435 14.971 24.7435 12.1125C24.7435 5.43377 19.3098 0 12.631 0C5.95232 0 0.518555 5.43377 0.518555 12.1125C0.518555 18.7912 5.95232 24.225 12.631 24.225C15.1383 24.225 17.5276 23.4687 19.5704 22.0331L26.7647 29.5155C27.0654 29.8278 27.4699 30 27.9033 30C28.3136 30 28.7027 29.8436 28.9982 29.5592C29.6259 28.9552 29.6459 27.9535 29.0419 27.3252ZM12.631 3.15978C17.5677 3.15978 21.5838 7.17586 21.5838 12.1125C21.5838 17.0491 17.5677 21.0652 12.631 21.0652C7.69441 21.0652 3.67833 17.0491 3.67833 12.1125C3.67833 7.17586 7.69441 3.15978 12.631 3.15978Z" fill="#925FA4"/>
</svg>
