<svg width="36" height="36" viewBox="0 0 36 36" fill="none" xmlns="http://www.w3.org/2000/svg">
<path d="M17.9999 3C23.9999 3 33.9999 6 33.9999 19C33.9999 32 33.9999 35 30.9999 35C27.9999 35 23.9999 32 17.9999 32C11.9999 32 8.08493 35 4.99993 35C1.65693 35 1.99993 23 1.99993 19C1.99993 6 11.9999 3 17.9999 3Z" fill="#E95F28"/>
<path d="M6 18.562C6 10.036 11.373 3.12402 18 3.12402C24.627 3.12402 30 10.036 30 18.562C30 27.088 24.627 34 18 34C11.373 34 6 27.088 6 18.562Z" fill="#FFDC5D"/>
<path d="M18 30C15.653 30 14.425 28.84 14.293 28.707C13.902 28.316 13.902 27.684 14.293 27.293C14.68 26.906 15.306 26.903 15.697 27.283C15.748 27.33 16.503 28 18 28C19.519 28 20.273 27.31 20.305 27.281C20.703 26.908 21.332 26.919 21.713 27.31C22.092 27.703 22.093 28.321 21.707 28.707C21.575 28.84 20.347 30 18 30Z" fill="#DF1F32"/>
<path d="M19 25H17C16.448 25 16 24.553 16 24C16 23.447 16.448 23 17 23H19C19.553 23 20 23.447 20 24C20 24.553 19.553 25 19 25Z" fill="#C1694F"/>
<path d="M3.06401 24C3.03401 23.675 3.00001 23.353 3.00001 23C3.00001 18 6.00001 23.562 6.00001 20C6.00001 16.437 8.00001 16 10 14L13 11C13 11 18 14 22 14C26 14 30 16 30 20C30 24 33 18 33 23C33 23.355 32.967 23.673 32.942 24H33.991C34 22.523 34 20.868 34 19C34 6 24 1 18 1C12 1 2.00001 6 2.00001 19C2.00001 20.158 1.97201 21.986 2.01201 24H3.06401Z" fill="#E95F28"/>
<path d="M13 22C12.448 22 12 21.553 12 21V19C12 18.448 12.448 18 13 18C13.552 18 14 18.448 14 19V21C14 21.553 13.552 22 13 22ZM23 22C22.447 22 22 21.553 22 21V19C22 18.448 22.447 18 23 18C23.553 18 24 18.448 24 19V21C24 21.553 23.553 22 23 22Z" fill="#662113"/>
</svg>
